<svg id="channel_24" viewBox="0 0 24 24" fill="none" xmlns="http://www.w3.org/2000/svg">
  <path d="M8.63086 3.75772C9.04063 3.81713 9.32484 4.19751 9.26562 4.60733L8.91504 7.02921H16.374L16.7578 4.39151C16.8177 3.98191 17.1987 3.69815 17.6084 3.75772C18.018 3.81754 18.3017 4.19859 18.2422 4.60831L17.8906 7.02921H21.5C21.9142 7.02921 22.25 7.36503 22.25 7.77921C22.25 8.1934 21.9142 8.52921 21.5 8.52921H17.6719L16.6221 15.7499H20.5C20.9142 15.7499 21.25 16.0857 21.25 16.4999C21.25 16.9141 20.9142 17.2499 20.5 17.2499H16.5C16.4679 17.2499 16.4363 17.247 16.4053 17.2431L16.0615 19.6083C16.0164 19.9173 15.7836 20.1657 15.4785 20.2323C15.1734 20.2988 14.8592 20.1693 14.6895 19.9071C14.0323 18.8925 12.4218 17.4084 10.209 16.1737C9.44749 15.7489 8.62442 15.3607 7.75781 15.0331L7.09668 19.6073C7.03739 20.0172 6.6569 20.3012 6.24707 20.2421C5.83713 20.1828 5.55302 19.8024 5.6123 19.3925L6.31055 14.5595C5.0891 14.2202 3.80548 14.0165 2.5 14.0165C2.08586 14.0165 1.75011 13.6806 1.75 13.2665C1.75005 12.8523 2.08582 12.5165 2.5 12.5165C3.88809 12.5165 5.24273 12.7208 6.52637 13.0624L7.18262 8.52921H3.5C3.0858 8.52921 2.75002 8.1934 2.75 7.77921C2.75005 7.36503 3.08582 7.02921 3.5 7.02921H7.40039L7.78125 4.39249C7.84063 3.98265 8.22098 3.69846 8.63086 3.75772ZM7.97656 13.5155C9.03669 13.8952 10.0328 14.3583 10.9395 14.8642C12.5102 15.7406 13.8519 16.7649 14.8174 17.7333L16.1562 8.52921H8.69824L7.97656 13.5155Z" fill="currentColor"/>
</svg>
